<svg width="17" height="16" viewBox="0 0 17 16" fill="none" xmlns="http://www.w3.org/2000/svg">
<path d="M12.0059 1.33337H5.33919C3.49824 1.33337 2.00586 2.82576 2.00586 4.66671V11.3334C2.00586 13.1743 3.49824 14.6667 5.33919 14.6667H12.0059C13.8468 14.6667 15.3392 13.1743 15.3392 11.3334V4.66671C15.3392 2.82576 13.8468 1.33337 12.0059 1.33337Z" stroke="#FFC82C" stroke-linecap="round" stroke-linejoin="round"/>
<path d="M11.3392 7.58008C11.4214 8.13491 11.3267 8.70156 11.0683 9.19942C10.81 9.69729 10.4013 10.101 9.90024 10.3532C9.39923 10.6054 8.83146 10.6931 8.27768 10.604C7.72391 10.5149 7.21233 10.2535 6.81572 9.85685C6.4191 9.46024 6.15765 8.94866 6.06854 8.39489C5.97943 7.84111 6.0672 7.27334 6.31938 6.77233C6.57155 6.27131 6.97528 5.86257 7.47315 5.60424C7.97102 5.34591 8.53766 5.25114 9.09249 5.33341C9.65844 5.41734 10.1824 5.68105 10.587 6.08562C10.9915 6.49018 11.2552 7.01413 11.3392 7.58008Z" stroke="#FFC82C" stroke-linecap="round" stroke-linejoin="round"/>
<path d="M12.3394 4.33337H12.3467" stroke="#FFC82C" stroke-linecap="round" stroke-linejoin="round"/>
</svg>
